<svg width="163" height="47" viewBox="0 0 163 47" fill="none" xmlns="http://www.w3.org/2000/svg">
<path d="M95.1631 37L93.4198 30.9271H84.3775L82.615 37H75.4501L84.7414 9.35586H93.3431L102.634 37H95.1631ZM88.822 15.218L85.7376 25.8695H92.0404L88.9752 15.218H88.822ZM106.206 37V7.97652H112.988V37H106.206ZM127.728 20.0457C125.544 20.0457 123.916 21.6549 123.744 23.9346H131.675C131.541 21.5783 129.989 20.0457 127.728 20.0457ZM131.828 30.2949H137.958C137.307 34.6628 133.38 37.4598 127.862 37.4598C121.119 37.4598 117.058 33.3026 117.058 26.4443C117.058 19.5668 121.157 15.218 127.633 15.218C133.993 15.218 138.093 19.3943 138.093 25.8887V27.8236H123.667V28.2451C123.667 30.8505 125.41 32.6321 127.958 32.6321C129.836 32.6321 131.311 31.7509 131.828 30.2949ZM151.09 29.9309H150.956L147.45 37H140.4L146.837 26.3868L140.4 15.6778H148.082L151.339 22.5553H151.473L154.71 15.6778H162.048L155.611 26.2527L162.029 37H154.672L151.09 29.9309Z" fill="url(#paint0_linear_13_147)"/>
<path d="M9.85626 8.87197C10.3951 7.10397 12.3892 6.23909 14.0482 7.05376L61.3978 30.3044C62.7451 30.9659 64.374 30.53 65.2108 29.2838L69.6273 22.7064C71.2334 20.3144 68.8724 17.254 66.1511 18.2005L5.57664 39.2697C3.25854 40.076 1.00587 37.9092 1.72143 35.5615L9.85626 8.87197Z" fill="#68D38A"/>
<defs>
<linearGradient id="paint0_linear_13_147" x1="74.634" y1="23.5" x2="162.634" y2="23.5" gradientUnits="userSpaceOnUse">
<stop stop-color="#68D38A"/>
<stop offset="1" stop-color="#2DEA69"/>
</linearGradient>
</defs>
</svg>
